<mxfile host="app.diagrams.net" agent="Mozilla/5.0 (Macintosh; Intel Mac OS X 10_15_7) AppleWebKit/537.36 (KHTML, like Gecko) Chrome/130.0.0.0 Safari/537.36" version="24.8.3">
  <diagram name="第 1 页" id="lqns6QbL6z61x_NUuKf5">
    <mxGraphModel dx="2532" dy="1691" grid="1" gridSize="10" guides="1" tooltips="1" connect="1" arrows="1" fold="1" page="1" pageScale="1" pageWidth="1169" pageHeight="827" math="0" shadow="0">
      <root>
        <mxCell id="0" />
        <mxCell id="1" parent="0" />
        <mxCell id="Lh_Kc4Il1jXyrYa-xsmO-1" value="MIModel" style="whiteSpace=wrap;strokeWidth=2;" vertex="1" parent="1">
          <mxGeometry x="88" y="121" width="118" height="49" as="geometry" />
        </mxCell>
        <mxCell id="Lh_Kc4Il1jXyrYa-xsmO-2" value="DataJob" style="whiteSpace=wrap;strokeWidth=2;" vertex="1" parent="1">
          <mxGeometry x="88" y="242" width="118" height="49" as="geometry" />
        </mxCell>
        <mxCell id="Lh_Kc4Il1jXyrYa-xsmO-3" value="DataFlow" style="whiteSpace=wrap;strokeWidth=2;" vertex="1" parent="1">
          <mxGeometry x="308" y="363" width="127" height="49" as="geometry" />
        </mxCell>
        <mxCell id="Lh_Kc4Il1jXyrYa-xsmO-4" value="Domain" style="whiteSpace=wrap;strokeWidth=2;" vertex="1" parent="1">
          <mxGeometry x="419" y="484" width="113" height="49" as="geometry" />
        </mxCell>
        <mxCell id="Lh_Kc4Il1jXyrYa-xsmO-5" value="Container" style="whiteSpace=wrap;strokeWidth=2;" vertex="1" parent="1">
          <mxGeometry x="-20" y="363" width="130" height="49" as="geometry" />
        </mxCell>
        <mxCell id="Lh_Kc4Il1jXyrYa-xsmO-6" value="Dashboard" style="whiteSpace=wrap;strokeWidth=2;" vertex="1" parent="1">
          <mxGeometry x="426" y="121" width="134" height="49" as="geometry" />
        </mxCell>
        <mxCell id="Lh_Kc4Il1jXyrYa-xsmO-7" value="Chart" style="whiteSpace=wrap;strokeWidth=2;" vertex="1" parent="1">
          <mxGeometry x="444" y="242" width="99" height="49" as="geometry" />
        </mxCell>
        <mxCell id="Lh_Kc4Il1jXyrYa-xsmO-8" value="MIModelDeployment" style="whiteSpace=wrap;strokeWidth=2;" vertex="1" parent="1">
          <mxGeometry x="36" y="484" width="204" height="49" as="geometry" />
        </mxCell>
        <mxCell id="Lh_Kc4Il1jXyrYa-xsmO-9" value="MIModelGroup" style="whiteSpace=wrap;strokeWidth=2;" vertex="1" parent="1">
          <mxGeometry x="57" y="605" width="161" height="49" as="geometry" />
        </mxCell>
        <mxCell id="Lh_Kc4Il1jXyrYa-xsmO-10" value="CorpGroup" style="whiteSpace=wrap;strokeWidth=2;" vertex="1" parent="1">
          <mxGeometry x="69" y="726" width="137" height="49" as="geometry" />
        </mxCell>
        <mxCell id="Lh_Kc4Il1jXyrYa-xsmO-11" value="CorpUser" style="whiteSpace=wrap;strokeWidth=2;" vertex="1" parent="1">
          <mxGeometry x="584" y="847" width="125" height="49" as="geometry" />
        </mxCell>
        <mxCell id="Lh_Kc4Il1jXyrYa-xsmO-12" value="Dataset" style="whiteSpace=wrap;strokeWidth=2;" vertex="1" parent="1">
          <mxGeometry x="1095" y="363" width="115" height="49" as="geometry" />
        </mxCell>
        <mxCell id="Lh_Kc4Il1jXyrYa-xsmO-13" value="Assertion" style="whiteSpace=wrap;strokeWidth=2;" vertex="1" parent="1">
          <mxGeometry x="1258" y="484" width="126" height="49" as="geometry" />
        </mxCell>
        <mxCell id="Lh_Kc4Il1jXyrYa-xsmO-14" value="MIPrimaryKey" style="whiteSpace=wrap;strokeWidth=2;" vertex="1" parent="1">
          <mxGeometry x="1001" y="484" width="156" height="49" as="geometry" />
        </mxCell>
        <mxCell id="Lh_Kc4Il1jXyrYa-xsmO-15" value="MIFeatureTable" style="whiteSpace=wrap;strokeWidth=2;" vertex="1" parent="1">
          <mxGeometry x="673" width="169" height="49" as="geometry" />
        </mxCell>
        <mxCell id="Lh_Kc4Il1jXyrYa-xsmO-16" value="GlossaryTerm" style="whiteSpace=wrap;strokeWidth=2;" vertex="1" parent="1">
          <mxGeometry x="680" y="121" width="155" height="49" as="geometry" />
        </mxCell>
        <mxCell id="Lh_Kc4Il1jXyrYa-xsmO-17" value="DataProcess" style="whiteSpace=wrap;strokeWidth=2;" vertex="1" parent="1">
          <mxGeometry x="685" y="242" width="146" height="49" as="geometry" />
        </mxCell>
        <mxCell id="Lh_Kc4Il1jXyrYa-xsmO-18" value="DataPlatform" style="whiteSpace=wrap;strokeWidth=2;" vertex="1" parent="1">
          <mxGeometry x="629" y="363" width="155" height="49" as="geometry" />
        </mxCell>
        <mxCell id="Lh_Kc4Il1jXyrYa-xsmO-19" value="DataHubExecutionRequest" style="whiteSpace=wrap;strokeWidth=2;" vertex="1" parent="1">
          <mxGeometry x="656" y="484" width="248" height="49" as="geometry" />
        </mxCell>
        <mxCell id="Lh_Kc4Il1jXyrYa-xsmO-20" value="DataHubIngestionSource" style="whiteSpace=wrap;strokeWidth=2;" vertex="1" parent="1">
          <mxGeometry x="663" y="605" width="234" height="49" as="geometry" />
        </mxCell>
        <mxCell id="Lh_Kc4Il1jXyrYa-xsmO-21" value="GlossaryNode" style="whiteSpace=wrap;strokeWidth=2;" vertex="1" parent="1">
          <mxGeometry x="946" y="605" width="156" height="49" as="geometry" />
        </mxCell>
        <mxCell id="Lh_Kc4Il1jXyrYa-xsmO-22" value="Tag" style="whiteSpace=wrap;strokeWidth=2;" vertex="1" parent="1">
          <mxGeometry x="647" y="726" width="84" height="49" as="geometry" />
        </mxCell>
        <mxCell id="Lh_Kc4Il1jXyrYa-xsmO-23" value="SchemaField" style="whiteSpace=wrap;strokeWidth=2;" vertex="1" parent="1">
          <mxGeometry x="1145" y="242" width="150" height="49" as="geometry" />
        </mxCell>
        <mxCell id="Lh_Kc4Il1jXyrYa-xsmO-24" value="Corpus" style="whiteSpace=wrap;strokeWidth=2;" vertex="1" parent="1">
          <mxGeometry x="834" y="363" width="109" height="49" as="geometry" />
        </mxCell>
        <mxCell id="Lh_Kc4Il1jXyrYa-xsmO-25" value="UsedBy" style="curved=1;startArrow=none;endArrow=block;exitX=0.5;exitY=0.99;entryX=0.5;entryY=0;rounded=0;" edge="1" parent="1" source="Lh_Kc4Il1jXyrYa-xsmO-1" target="Lh_Kc4Il1jXyrYa-xsmO-2">
          <mxGeometry relative="1" as="geometry">
            <Array as="points" />
          </mxGeometry>
        </mxCell>
        <mxCell id="Lh_Kc4Il1jXyrYa-xsmO-26" value="DownstreamOf" style="curved=1;startArrow=none;endArrow=block;exitX=0.94;exitY=0.99;entryX=0.2;entryY=0;rounded=0;" edge="1" parent="1" source="Lh_Kc4Il1jXyrYa-xsmO-2" target="Lh_Kc4Il1jXyrYa-xsmO-3">
          <mxGeometry relative="1" as="geometry">
            <Array as="points">
              <mxPoint x="277" y="327" />
            </Array>
          </mxGeometry>
        </mxCell>
        <mxCell id="Lh_Kc4Il1jXyrYa-xsmO-27" value="IsPartOf" style="curved=1;startArrow=none;endArrow=block;exitX=0.6;exitY=0.99;entryX=0;entryY=0.26;rounded=0;" edge="1" parent="1" source="Lh_Kc4Il1jXyrYa-xsmO-2" target="Lh_Kc4Il1jXyrYa-xsmO-4">
          <mxGeometry relative="1" as="geometry">
            <Array as="points">
              <mxPoint x="175" y="327" />
              <mxPoint x="175" y="448" />
            </Array>
          </mxGeometry>
        </mxCell>
        <mxCell id="Lh_Kc4Il1jXyrYa-xsmO-28" value="ContainedIn" style="curved=1;startArrow=none;endArrow=block;exitX=0.16;exitY=0.99;entryX=0.5;entryY=0;rounded=0;" edge="1" parent="1" source="Lh_Kc4Il1jXyrYa-xsmO-2" target="Lh_Kc4Il1jXyrYa-xsmO-5">
          <mxGeometry relative="1" as="geometry">
            <Array as="points">
              <mxPoint x="45" y="327" />
            </Array>
          </mxGeometry>
        </mxCell>
        <mxCell id="Lh_Kc4Il1jXyrYa-xsmO-29" value="IsPartOf" style="curved=1;startArrow=none;endArrow=block;exitX=0.5;exitY=0.99;entryX=0;entryY=0.33;rounded=0;" edge="1" parent="1" source="Lh_Kc4Il1jXyrYa-xsmO-5" target="Lh_Kc4Il1jXyrYa-xsmO-4">
          <mxGeometry relative="1" as="geometry">
            <Array as="points">
              <mxPoint x="45" y="448" />
            </Array>
          </mxGeometry>
        </mxCell>
        <mxCell id="Lh_Kc4Il1jXyrYa-xsmO-30" value="Contains" style="curved=1;startArrow=none;endArrow=block;exitX=0.51;exitY=0.99;entryX=0.5;entryY=0;rounded=0;" edge="1" parent="1" source="Lh_Kc4Il1jXyrYa-xsmO-6" target="Lh_Kc4Il1jXyrYa-xsmO-7">
          <mxGeometry relative="1" as="geometry">
            <Array as="points" />
          </mxGeometry>
        </mxCell>
        <mxCell id="Lh_Kc4Il1jXyrYa-xsmO-31" value="Produces" style="curved=1;startArrow=none;endArrow=block;exitX=0.5;exitY=0.99;entryX=0.89;entryY=0;rounded=0;" edge="1" parent="1" source="Lh_Kc4Il1jXyrYa-xsmO-7" target="Lh_Kc4Il1jXyrYa-xsmO-3">
          <mxGeometry relative="1" as="geometry">
            <Array as="points">
              <mxPoint x="494" y="327" />
            </Array>
          </mxGeometry>
        </mxCell>
        <mxCell id="Lh_Kc4Il1jXyrYa-xsmO-32" value="AssociatedWith" style="curved=1;startArrow=none;endArrow=block;exitX=0.83;exitY=0.99;entryX=0.5;entryY=0;rounded=0;" edge="1" parent="1" source="Lh_Kc4Il1jXyrYa-xsmO-3" target="Lh_Kc4Il1jXyrYa-xsmO-4">
          <mxGeometry relative="1" as="geometry">
            <Array as="points">
              <mxPoint x="476" y="448" />
            </Array>
          </mxGeometry>
        </mxCell>
        <mxCell id="Lh_Kc4Il1jXyrYa-xsmO-33" value="OwnedBy" style="curved=1;startArrow=none;endArrow=block;exitX=0.17;exitY=0.99;entryX=0.75;entryY=0;rounded=0;" edge="1" parent="1" source="Lh_Kc4Il1jXyrYa-xsmO-3" target="Lh_Kc4Il1jXyrYa-xsmO-8">
          <mxGeometry relative="1" as="geometry">
            <Array as="points">
              <mxPoint x="267" y="448" />
            </Array>
          </mxGeometry>
        </mxCell>
        <mxCell id="Lh_Kc4Il1jXyrYa-xsmO-34" value="MemberOf" style="curved=1;startArrow=none;endArrow=block;exitX=0.5;exitY=0.99;entryX=0.5;entryY=0;rounded=0;" edge="1" parent="1" source="Lh_Kc4Il1jXyrYa-xsmO-8" target="Lh_Kc4Il1jXyrYa-xsmO-9">
          <mxGeometry relative="1" as="geometry">
            <Array as="points" />
          </mxGeometry>
        </mxCell>
        <mxCell id="Lh_Kc4Il1jXyrYa-xsmO-35" value="OwnedBy" style="curved=1;startArrow=none;endArrow=block;exitX=0.5;exitY=0.99;entryX=0.5;entryY=0;rounded=0;" edge="1" parent="1" source="Lh_Kc4Il1jXyrYa-xsmO-9" target="Lh_Kc4Il1jXyrYa-xsmO-10">
          <mxGeometry relative="1" as="geometry">
            <Array as="points" />
          </mxGeometry>
        </mxCell>
        <mxCell id="Lh_Kc4Il1jXyrYa-xsmO-36" value="IsPartOf" style="curved=1;startArrow=none;endArrow=block;exitX=1;exitY=0.69;entryX=0.24;entryY=0;rounded=0;" edge="1" parent="1" source="Lh_Kc4Il1jXyrYa-xsmO-10" target="Lh_Kc4Il1jXyrYa-xsmO-11">
          <mxGeometry relative="1" as="geometry">
            <Array as="points">
              <mxPoint x="567" y="811" />
            </Array>
          </mxGeometry>
        </mxCell>
        <mxCell id="Lh_Kc4Il1jXyrYa-xsmO-37" value="ReportsTo" style="curved=1;startArrow=none;endArrow=block;exitX=0;exitY=0.36;entryX=0.37;entryY=0.99;rounded=0;" edge="1" parent="1" source="Lh_Kc4Il1jXyrYa-xsmO-11" target="Lh_Kc4Il1jXyrYa-xsmO-10">
          <mxGeometry relative="1" as="geometry">
            <Array as="points">
              <mxPoint x="94" y="811" />
            </Array>
          </mxGeometry>
        </mxCell>
        <mxCell id="Lh_Kc4Il1jXyrYa-xsmO-38" value="Asserts" style="curved=1;startArrow=none;endArrow=block;exitX=0.99;exitY=0.91;entryX=0.5;entryY=0;rounded=0;" edge="1" parent="1" source="Lh_Kc4Il1jXyrYa-xsmO-12" target="Lh_Kc4Il1jXyrYa-xsmO-13">
          <mxGeometry relative="1" as="geometry">
            <Array as="points">
              <mxPoint x="1321" y="448" />
            </Array>
          </mxGeometry>
        </mxCell>
        <mxCell id="Lh_Kc4Il1jXyrYa-xsmO-39" value="IsPartOf" style="curved=1;startArrow=none;endArrow=block;exitX=0.79;exitY=0.99;entryX=1;entryY=0.4;rounded=0;" edge="1" parent="1" source="Lh_Kc4Il1jXyrYa-xsmO-12" target="Lh_Kc4Il1jXyrYa-xsmO-4">
          <mxGeometry relative="1" as="geometry">
            <Array as="points">
              <mxPoint x="1236" y="448" />
            </Array>
          </mxGeometry>
        </mxCell>
        <mxCell id="Lh_Kc4Il1jXyrYa-xsmO-40" value="ForeignkeyTo" style="curved=1;startArrow=none;endArrow=block;exitX=0.44;exitY=0.99;entryX=0.65;entryY=0;rounded=0;" edge="1" parent="1" source="Lh_Kc4Il1jXyrYa-xsmO-12" target="Lh_Kc4Il1jXyrYa-xsmO-14">
          <mxGeometry relative="1" as="geometry">
            <Array as="points">
              <mxPoint x="1137" y="448" />
            </Array>
          </mxGeometry>
        </mxCell>
        <mxCell id="Lh_Kc4Il1jXyrYa-xsmO-41" value="DerivedFrom" style="curved=1;startArrow=none;endArrow=block;exitX=0.35;exitY=0;entryX=0.04;entryY=0.99;rounded=0;" edge="1" parent="1" source="Lh_Kc4Il1jXyrYa-xsmO-14" target="Lh_Kc4Il1jXyrYa-xsmO-12">
          <mxGeometry relative="1" as="geometry">
            <Array as="points">
              <mxPoint x="1020" y="448" />
            </Array>
          </mxGeometry>
        </mxCell>
        <mxCell id="Lh_Kc4Il1jXyrYa-xsmO-42" value="KeyedBy" style="curved=1;startArrow=none;endArrow=block;exitX=0.5;exitY=0.99;entryX=0.5;entryY=0;rounded=0;" edge="1" parent="1" source="Lh_Kc4Il1jXyrYa-xsmO-15" target="Lh_Kc4Il1jXyrYa-xsmO-16">
          <mxGeometry relative="1" as="geometry">
            <Array as="points" />
          </mxGeometry>
        </mxCell>
        <mxCell id="Lh_Kc4Il1jXyrYa-xsmO-43" value="IsHasA" style="curved=1;startArrow=none;endArrow=block;exitX=0.5;exitY=0.99;entryX=0.5;entryY=0;rounded=0;" edge="1" parent="1" source="Lh_Kc4Il1jXyrYa-xsmO-16" target="Lh_Kc4Il1jXyrYa-xsmO-17">
          <mxGeometry relative="1" as="geometry">
            <Array as="points" />
          </mxGeometry>
        </mxCell>
        <mxCell id="Lh_Kc4Il1jXyrYa-xsmO-44" value="Consumes" style="curved=1;startArrow=none;endArrow=block;exitX=0.97;exitY=0.99;entryX=0;entryY=0.18;rounded=0;" edge="1" parent="1" source="Lh_Kc4Il1jXyrYa-xsmO-17" target="Lh_Kc4Il1jXyrYa-xsmO-12">
          <mxGeometry relative="1" as="geometry">
            <Array as="points">
              <mxPoint x="929" y="327" />
            </Array>
          </mxGeometry>
        </mxCell>
        <mxCell id="Lh_Kc4Il1jXyrYa-xsmO-45" value="ContainedIn" style="curved=1;startArrow=none;endArrow=block;exitX=0.36;exitY=0.99;entryX=0.5;entryY=0;rounded=0;" edge="1" parent="1" source="Lh_Kc4Il1jXyrYa-xsmO-17" target="Lh_Kc4Il1jXyrYa-xsmO-18">
          <mxGeometry relative="1" as="geometry">
            <Array as="points">
              <mxPoint x="706" y="327" />
            </Array>
          </mxGeometry>
        </mxCell>
        <mxCell id="Lh_Kc4Il1jXyrYa-xsmO-46" value="SourcePlatform" style="curved=1;startArrow=none;endArrow=block;exitX=0.5;exitY=0.99;entryX=0.38;entryY=0;rounded=0;" edge="1" parent="1" source="Lh_Kc4Il1jXyrYa-xsmO-18" target="Lh_Kc4Il1jXyrYa-xsmO-19">
          <mxGeometry relative="1" as="geometry">
            <Array as="points">
              <mxPoint x="706" y="448" />
            </Array>
          </mxGeometry>
        </mxCell>
        <mxCell id="Lh_Kc4Il1jXyrYa-xsmO-47" value="IngestionSource" style="curved=1;startArrow=none;endArrow=block;exitX=0.5;exitY=0.99;entryX=0.5;entryY=0;rounded=0;" edge="1" parent="1" source="Lh_Kc4Il1jXyrYa-xsmO-19" target="Lh_Kc4Il1jXyrYa-xsmO-20">
          <mxGeometry relative="1" as="geometry">
            <Array as="points" />
          </mxGeometry>
        </mxCell>
        <mxCell id="Lh_Kc4Il1jXyrYa-xsmO-48" value="OwnedBy" style="curved=1;startArrow=none;endArrow=block;exitX=0.65;exitY=0.99;entryX=1;entryY=0.32;rounded=0;" edge="1" parent="1" source="Lh_Kc4Il1jXyrYa-xsmO-21" target="Lh_Kc4Il1jXyrYa-xsmO-11">
          <mxGeometry relative="1" as="geometry">
            <Array as="points">
              <mxPoint x="1082" y="690" />
              <mxPoint x="1082" y="811" />
            </Array>
          </mxGeometry>
        </mxCell>
        <mxCell id="Lh_Kc4Il1jXyrYa-xsmO-49" value="Tag" style="curved=1;startArrow=none;endArrow=block;exitX=0;exitY=0.78;entryX=0.5;entryY=0;rounded=0;" edge="1" parent="1" source="Lh_Kc4Il1jXyrYa-xsmO-21" target="Lh_Kc4Il1jXyrYa-xsmO-22">
          <mxGeometry relative="1" as="geometry">
            <Array as="points">
              <mxPoint x="689" y="690" />
            </Array>
          </mxGeometry>
        </mxCell>
        <mxCell id="Lh_Kc4Il1jXyrYa-xsmO-50" value="OwnedBy" style="curved=1;startArrow=none;endArrow=block;exitX=0.5;exitY=0.99;entryX=0.64;entryY=0;rounded=0;" edge="1" parent="1" source="Lh_Kc4Il1jXyrYa-xsmO-22" target="Lh_Kc4Il1jXyrYa-xsmO-11">
          <mxGeometry relative="1" as="geometry">
            <Array as="points">
              <mxPoint x="689" y="811" />
            </Array>
          </mxGeometry>
        </mxCell>
        <mxCell id="Lh_Kc4Il1jXyrYa-xsmO-51" value="OwnedBy" style="curved=1;startArrow=none;endArrow=block;exitX=0.5;exitY=0.99;entryX=0.73;entryY=0;rounded=0;" edge="1" parent="1" source="Lh_Kc4Il1jXyrYa-xsmO-23" target="Lh_Kc4Il1jXyrYa-xsmO-12">
          <mxGeometry relative="1" as="geometry">
            <Array as="points">
              <mxPoint x="1220" y="327" />
            </Array>
          </mxGeometry>
        </mxCell>
        <mxCell id="Lh_Kc4Il1jXyrYa-xsmO-52" value="OwnedBy" style="curved=1;startArrow=none;endArrow=block;exitX=0.5;exitY=0.99;entryX=1;entryY=0.33;rounded=0;" edge="1" parent="1" source="Lh_Kc4Il1jXyrYa-xsmO-24" target="Lh_Kc4Il1jXyrYa-xsmO-4">
          <mxGeometry relative="1" as="geometry">
            <Array as="points">
              <mxPoint x="888" y="448" />
            </Array>
          </mxGeometry>
        </mxCell>
      </root>
    </mxGraphModel>
  </diagram>
</mxfile>
